<svg width="500" height="500" viewBox="0 0 500 500" fill="none" xmlns="http://www.w3.org/2000/svg">
<path d="M177 378.35H190.895C211.881 378.35 228.895 395.364 228.895 416.35V455.355C228.895 469.686 217.278 481.303 202.947 481.303V481.303C188.617 481.303 177 469.686 177 455.355V378.35Z" fill="#3DC45A"/>
<path d="M311.759 378.35H297.864C276.877 378.35 259.864 395.364 259.864 416.35V455.355C259.864 469.686 271.481 481.303 285.811 481.303V481.303C300.142 481.303 311.759 469.686 311.759 455.355V378.35Z" fill="#3DC45A"/>
<path d="M120.605 377.557C114.196 365.191 119.025 349.97 131.391 343.561L208.805 303.438C220.993 297.121 235.994 301.88 242.311 314.068C249.28 327.514 242.707 344.014 228.401 348.985L202.857 357.861C198.893 359.239 195.126 361.127 191.651 363.479L157.129 386.839C144.63 395.297 127.55 390.956 120.605 377.557Z" fill="#3DC45A"/>
<path d="M390.395 377.557C396.804 365.191 391.975 349.97 379.609 343.561L302.195 303.438C290.007 297.121 275.006 301.88 268.689 314.068C261.72 327.514 268.293 344.014 282.599 348.985L308.143 357.861C312.107 359.239 315.874 361.127 319.349 363.479L353.871 386.839C366.37 395.297 383.45 390.956 390.395 377.557Z" fill="#3DC45A"/>
<path d="M176.108 368.598C174.414 329.659 205.525 297.165 244.5 297.165C283.475 297.165 314.586 329.659 312.892 368.598L312.752 371.819C311.162 408.359 281.075 437.165 244.5 437.165C207.925 437.165 177.838 408.359 176.248 371.819L176.108 368.598Z" fill="#3DC45A"/>
<path d="M285 367.665C285 379.148 281.926 391.577 274.875 399.225C267.512 407.211 255.926 410.165 244.5 410.165C233.074 410.165 224.019 407.211 216.656 399.225C209.605 391.577 204 379.148 204 367.665C204 344.193 222.132 325.165 244.5 325.165C266.868 325.165 285 344.193 285 367.665Z" fill="#28A344"/>
<path d="M230 105C230 149.735 227.606 272.5 205.427 272.5C183.248 272.5 112 231.735 112 187C112 142.265 126 28.5 170.158 18C192.336 18 230 60.2649 230 105Z" fill="#3DC45A"/>
<path d="M258 105C258 149.735 260.394 272.5 282.573 272.5C304.752 272.5 376 231.735 376 187C376 142.265 362 28.5 317.842 18C295.664 18 258 60.2649 258 105Z" fill="#3DC45A"/>
<path d="M379 210.5C379 279.812 318.558 336 244 336C169.442 336 109 279.812 109 210.5C109 141.188 169.442 85 244 85C318.558 85 379 141.188 379 210.5Z" fill="#3DC45A"/>
<path d="M335.011 203.73C357.581 255.219 299.295 303.81 245.88 301.948C180.395 303.345 130.351 249.667 148.908 203.73C180.395 137.165 218.5 199.474 245.88 199.474C271 199.474 312.923 143.216 335.011 203.73Z" fill="white"/>
<ellipse opacity="0.46" cx="291.5" cy="251.5" rx="26.5" ry="25.5" fill="#F89FC2"/>
<ellipse opacity="0.46" cx="188.5" cy="251.5" rx="26.5" ry="25.5" fill="#F89FC2"/>
<path d="M240 239.5C240.667 247.333 240.9 265 236.5 273" stroke="#FC484A" stroke-width="3"/>
<path d="M233.979 239.117C237.166 242.76 242.834 242.76 246.021 239.117L250.045 234.517C254.57 229.344 250.896 221.25 244.023 221.25H235.977C229.104 221.25 225.43 229.344 229.955 234.517L233.979 239.117Z" fill="#FC484A"/>
<path d="M240.5 282.001C252.926 282.001 263 271.927 263 259.501V252.705C263 251.933 262.961 251.17 262.885 250.418H218.115C218.039 251.17 218 251.933 218 252.705V259.501C218 271.927 228.074 282.001 240.5 282.001Z" fill="#A81C2F"/>
<path d="M242.5 282.001C250.288 282.001 257.009 277.434 260.134 270.833C252.615 264.805 242.061 262.484 231.988 265.567C227.847 266.835 224.208 268.889 221.195 271.495C224.447 277.737 230.975 282.001 238.5 282.001H242.5Z" fill="#E27257"/>
<path d="M318.676 223.878C319.626 221.227 323.374 221.227 324.324 223.878L327.164 231.801C327.494 232.719 328.249 233.42 329.189 233.68L333.289 234.814C336.164 235.609 336.243 239.657 333.401 240.563L329.079 241.943C328.202 242.223 327.502 242.89 327.18 243.753L324.847 250.017C323.82 252.772 319.856 252.56 319.129 249.712L317.988 245.244C317.74 244.273 317.023 243.49 316.077 243.157L309.018 240.673C306.247 239.698 306.383 235.735 309.214 234.952L313.811 233.68C314.751 233.42 315.506 232.719 315.836 231.801L318.676 223.878Z" fill="#FDC900"/>
<path d="M404.676 309.878C405.626 307.227 409.374 307.227 410.324 309.878L413.164 317.801C413.494 318.719 414.249 319.42 415.189 319.68L419.289 320.814C422.164 321.609 422.243 325.657 419.401 326.563L415.079 327.943C414.202 328.223 413.502 328.89 413.18 329.753L410.847 336.017C409.82 338.772 405.856 338.56 405.129 335.712L403.988 331.244C403.74 330.273 403.023 329.49 402.077 329.157L395.018 326.673C392.247 325.698 392.383 321.735 395.214 320.952L399.811 319.68C400.751 319.42 401.506 318.719 401.836 317.801L404.676 309.878Z" fill="#FDC900"/>
<path d="M90.676 309.878C91.626 307.227 95.374 307.227 96.324 309.878L99.1644 317.801C99.4936 318.719 100.249 319.42 101.189 319.68L105.289 320.814C108.164 321.609 108.243 325.657 105.401 326.563L101.079 327.943C100.202 328.223 99.5016 328.89 99.1801 329.753L96.8466 336.017C95.8204 338.772 91.8558 338.56 91.1286 335.712L89.988 331.244C89.7399 330.273 89.0228 329.49 88.0769 329.157L81.0177 326.673C78.2472 325.698 78.3829 321.735 81.2137 320.952L85.8113 319.68C86.7514 319.42 87.5064 318.719 87.8356 317.801L90.676 309.878Z" fill="#FDC900"/>
<path d="M294.706 223.683C283.198 225.096 273.56 226.279 264.929 227.339M264.929 227.339L283.257 212.495M264.929 227.339L282.354 240.816" stroke="black" stroke-width="9" stroke-linecap="round" stroke-linejoin="round"/>
<circle cx="205.5" cy="221.5" r="16.5" fill="#1F1F23"/>
<path d="M197.984 219.72C197.46 223.272 199.221 226.473 197.035 226.151C194.85 225.828 193.503 222.688 194.027 219.136C194.55 215.585 196.747 212.967 198.932 213.29C201.118 213.612 198.508 216.169 197.984 219.72Z" fill="white"/>
<ellipse cx="133" cy="362.5" rx="18" ry="23.5" fill="#1A6635"/>
<ellipse cx="130" cy="361" rx="18" ry="25" fill="#3DC45A"/>
<ellipse cx="132.5" cy="338" rx="11.5" ry="13" fill="#3DC45A"/>
<ellipse cx="18" cy="23.5" rx="18" ry="23.5" transform="matrix(-1 0 0 1 392 339)" fill="#1A6635"/>
<ellipse cx="18" cy="25" rx="18" ry="25" transform="matrix(-1 0 0 1 395 336)" fill="#3DC45A"/>
<ellipse cx="11.5" cy="13" rx="11.5" ry="13" transform="matrix(-1 0 0 1 386 325)" fill="#3DC45A"/>
<path d="M90.9387 211.394L91.5139 203.917C91.8148 200.005 94.1665 196.567 97.7954 195.077C113.866 188.475 162.44 171.005 231.971 168.352C303.659 165.616 365.264 183.236 383.806 189.185C387.392 190.335 390.044 193.321 390.525 197.057C391.451 204.247 391.353 211.466 390.957 217.272C390.508 223.859 383.979 227.855 377.658 225.949C354.253 218.895 300.033 203.311 250.405 194.612C205.691 186.774 144.307 206.969 106.666 222.585C98.9054 225.805 90.2943 219.771 90.9387 211.394Z" fill="#E0602F"/>
<path d="M239.5 65.097C320.133 65.097 372.5 106.597 385.5 181.141C386.164 190.129 385.711 199.131 384.266 208.015C348.126 190.222 296.64 179.097 239.5 179.097C184.836 179.097 135.346 189.278 99.5175 205.739C96.024 192.82 94.7138 180.437 95.9999 169.484C109 101.597 158.866 65.097 239.5 65.097Z" fill="#F8A754"/>
<path d="M90.7058 205.118L91.4089 197.501C91.774 193.545 94.2402 190.106 97.9454 188.673C114.59 182.234 164.93 165.028 233 162.597C303.297 160.086 365.891 178.586 384.441 184.689C387.947 185.842 390.569 188.752 391.057 192.41C391.831 198.227 391.811 203.93 391.51 208.667C391.1 215.119 384.716 218.96 378.517 217.126C355.083 210.193 299.839 194.61 251 186.597C207.358 179.437 143.907 201.193 106.1 216.443C98.3504 219.569 89.9377 213.438 90.7058 205.118Z" fill="#F59044"/>
<path d="M213.5 67.5971C187.501 72.0013 172 142.43 167.5 177.097H195.5C193.833 174.597 191.5 160.197 195.5 122.597C199.5 84.9971 212.167 70.2638 218 67.5971C218 67.097 214 67.5125 213.5 67.5971Z" fill="#F59044"/>
<path d="M276 67.0972C252.805 71.5008 237.515 142.409 233.5 177.097H278.553C277.066 174.596 260.431 158.221 264 120.597C267.569 82.9734 274 71.097 277 67.097C277 67.097 277.709 66.7728 276 67.0972Z" fill="#F59044"/>
<path d="M220.5 61.0971C214.5 65.8971 208.667 77.0971 206.5 82.0971L255.5 85.597L265.5 75.597C268.167 73.2637 283.5 68.597 274 63.0971C261.091 55.6234 228 55.0971 220.5 61.0971Z" fill="#F8A754"/>
</svg>
