<svg width="500" height="500" viewBox="0 0 500 500" fill="none" xmlns="http://www.w3.org/2000/svg">
<path d="M104.81 316.474C108.156 302.954 121.829 294.706 135.35 298.051L219.991 318.998C233.316 322.295 241.445 335.771 238.148 349.097C234.51 363.798 218.682 371.856 204.654 366.15L179.605 355.961C175.717 354.379 171.641 353.312 167.478 352.785L126.125 347.552C111.152 345.658 101.185 331.124 104.81 316.474Z" fill="#E8457A"/>
<path d="M382.401 375.882C390.33 364.431 387.476 348.721 376.025 340.791L304.34 291.151C293.055 283.335 277.57 286.149 269.755 297.435C261.133 309.885 265.555 327.087 279.112 333.837L303.32 345.889C307.077 347.759 310.573 350.111 313.722 352.886L344.993 380.445C356.315 390.424 373.809 388.29 382.401 375.882Z" fill="#E8457A"/>
<path d="M184.408 378.35H198.303C219.29 378.35 236.303 395.364 236.303 416.35V455.355C236.303 469.686 224.686 481.303 210.356 481.303C196.025 481.303 184.408 469.686 184.408 455.355V378.35Z" fill="#E8457A"/>
<path d="M319.167 378.35H305.272C284.286 378.35 267.272 395.364 267.272 416.35V455.355C267.272 469.686 278.889 481.303 293.22 481.303C307.55 481.303 319.167 469.686 319.167 455.355V378.35Z" fill="#E8457A"/>
<path d="M183.516 368.598C181.822 329.659 212.933 297.165 251.908 297.165C290.884 297.165 321.994 329.659 320.3 368.598L320.16 371.819C318.57 408.359 288.483 437.165 251.908 437.165C215.333 437.165 185.246 408.359 183.657 371.819L183.516 368.598Z" fill="#E8457A"/>
<path d="M292.408 367.665C292.408 379.148 289.335 391.577 282.283 399.225C274.92 407.211 263.334 410.165 251.908 410.165C240.483 410.165 231.428 407.211 224.064 399.225C217.013 391.577 211.408 379.148 211.408 367.665C211.408 344.193 229.541 325.165 251.908 325.165C274.276 325.165 292.408 344.193 292.408 367.665Z" fill="#C42E60"/>
<path d="M237.408 105C237.408 149.735 235.014 272.5 212.835 272.5C190.657 272.5 119.408 231.735 119.408 187C119.408 142.265 133.408 28.5 177.566 18C199.745 18 237.408 60.2649 237.408 105Z" fill="#E8457A"/>
<path d="M265.408 105C265.408 149.735 267.803 272.5 289.981 272.5C312.16 272.5 383.408 231.735 383.408 187C383.408 142.265 369.408 28.5 325.25 18C303.072 18 265.408 60.2649 265.408 105Z" fill="#E8457A"/>
<path d="M386.408 210.5C386.408 279.812 325.967 336 251.408 336C176.85 336 116.408 279.812 116.408 210.5C116.408 141.188 176.85 85 251.408 85C325.967 85 386.408 141.188 386.408 210.5Z" fill="#E8457A"/>
<path d="M342.42 203.73C364.989 255.219 306.703 303.81 253.288 301.948C187.803 303.345 137.759 249.667 156.316 203.73C187.803 137.165 225.908 199.474 253.288 199.474C278.408 199.474 320.332 143.216 342.42 203.73Z" fill="white"/>
<ellipse opacity="0.46" cx="298.908" cy="251.5" rx="26.5" ry="25.5" fill="#F89FC2"/>
<ellipse opacity="0.46" cx="195.908" cy="251.5" rx="26.5" ry="25.5" fill="#F89FC2"/>
<path d="M247.766 240C248.394 245.595 249.557 254.286 245.408 260" stroke="#FC484A" stroke-width="3"/>
<path d="M258 231.5C258 237.299 253.299 242 247.5 242C241.701 242 237 237.299 237 231.5C237 225.701 241.701 221 247.5 221C253.299 221 258 225.701 258 231.5Z" fill="#FC484A"/>
<path d="M326.084 223.878C327.034 221.227 330.782 221.227 331.732 223.878L334.573 231.801C334.902 232.719 335.657 233.42 336.597 233.68L340.697 234.814C343.572 235.609 343.651 239.657 340.81 240.563L336.487 241.943C335.61 242.223 334.91 242.89 334.588 243.753L332.255 250.017C331.229 252.772 327.264 252.56 326.537 249.712L325.396 245.244C325.148 244.273 324.431 243.49 323.485 243.157L316.426 240.673C313.655 239.698 313.791 235.735 316.622 234.952L321.22 233.68C322.16 233.42 322.915 232.719 323.244 231.801L326.084 223.878Z" fill="#FDC900"/>
<path d="M231.408 260.194C243.226 254.531 255.408 259 259.908 266" stroke="#A81C2F" stroke-width="6" stroke-linecap="round"/>
<path d="M101.847 207.297L102.422 199.82C102.723 195.908 105.075 192.47 108.704 190.98C124.774 184.378 173.348 166.908 242.879 164.255C314.568 161.519 376.172 179.139 394.714 185.087C398.301 186.238 400.953 189.224 401.433 192.96C402.359 200.15 402.261 207.369 401.865 213.175C401.417 219.762 394.888 223.758 388.566 221.852C365.161 214.798 310.941 199.214 261.313 190.515C216.599 182.677 155.215 202.872 117.574 218.488C109.814 221.708 101.203 215.674 101.847 207.297Z" fill="#E0602F"/>
<path fill-rule="evenodd" clip-rule="evenodd" d="M250.408 61C331.042 61 383.408 102.5 396.408 177.044C397.072 186.032 396.619 195.034 395.175 203.918C359.035 186.125 307.548 175 250.408 175C195.745 175 146.255 185.181 110.426 201.642C106.932 188.723 105.622 176.34 106.908 165.387C119.908 97.5003 169.775 61 250.408 61Z" fill="#F8A754"/>
<path d="M101.614 201.021L102.317 193.404C102.682 189.448 105.148 186.009 108.854 184.576C125.499 178.137 175.838 160.931 243.908 158.5C314.205 155.989 376.799 174.489 395.35 180.592C398.855 181.745 401.477 184.655 401.965 188.313C402.74 194.13 402.719 199.833 402.418 204.57C402.009 211.022 395.625 214.863 389.425 213.029C365.991 206.096 310.747 190.513 261.908 182.5C218.267 175.34 154.815 197.096 117.008 212.346C109.259 215.472 100.846 209.341 101.614 201.021Z" fill="#F59044"/>
<path d="M224.408 63.5001C198.409 67.9042 182.908 138.333 178.408 173H206.408C204.742 170.5 202.408 156.1 206.408 118.5C210.408 80.9001 223.075 66.1668 228.908 63.5001C228.908 63 224.908 63.4154 224.408 63.5001Z" fill="#F59044"/>
<path d="M286.908 63.0001C263.713 67.4038 248.423 138.312 244.408 173H289.461C287.974 170.499 271.34 154.124 274.908 116.5C278.477 78.8764 284.908 67 287.908 63C287.908 63 288.617 62.6758 286.908 63.0001Z" fill="#F59044"/>
<path d="M231.408 57C225.408 61.8 219.575 73 217.408 78L266.408 81.5L276.408 71.5C279.075 69.1667 294.408 64.5 284.908 59C271.999 51.5264 238.908 51 231.408 57Z" fill="#F8A754"/>
<path d="M194.408 213H231.408V221.958C231.408 233.027 222.435 242 211.367 242C202.001 242 194.408 234.407 194.408 225.042V213Z" fill="#1F1F23"/>
<circle cx="221.408" cy="220" r="6" fill="white"/>
<path d="M304.408 213H267.408V221.958C267.408 233.027 276.381 242 287.45 242C296.816 242 304.408 234.407 304.408 225.042V213Z" fill="#1F1F23"/>
<circle cx="6" cy="6" r="6" transform="matrix(-1 0 0 1 301.408 214)" fill="white"/>
<circle cx="198.408" cy="238" r="43" fill="#93B4E9" fill-opacity="0.36" stroke="#5057A7" stroke-width="12"/>
<path d="M171.072 277.093L174.665 272.93L166.338 265.743L162.744 269.907L166.908 273.5L171.072 277.093ZM131.244 306.407C129.26 308.706 129.515 312.179 131.815 314.164C134.114 316.148 137.587 315.893 139.572 313.593L135.408 310L131.244 306.407ZM166.908 273.5L162.744 269.907L131.244 306.407L135.408 310L139.572 313.593L171.072 277.093L166.908 273.5Z" fill="#5057A7"/>
</svg>
