<svg width="500" height="500" viewBox="0 0 500 500" fill="none" xmlns="http://www.w3.org/2000/svg">
<path d="M127.737 368.422C120.909 356.283 125.215 340.906 137.355 334.078L213.354 291.334C225.319 284.604 240.474 288.849 247.203 300.814C254.627 314.014 248.622 330.728 234.495 336.185L209.269 345.929C205.354 347.441 201.653 349.457 198.26 351.926L164.557 376.451C152.354 385.331 135.136 381.577 127.737 368.422Z" fill="#E8A23B"/>
<path d="M411.171 308.286C406.631 295.118 392.275 288.125 379.108 292.666L296.678 321.092C283.7 325.567 276.807 339.715 281.283 352.693C286.22 367.01 302.704 373.622 316.166 366.685L340.205 354.298C343.935 352.376 347.9 350.948 352 350.051L392.719 341.144C407.463 337.919 416.092 322.553 411.171 308.286Z" fill="#E8A23B"/>
<path d="M196 378.35H209.895C230.881 378.35 247.895 395.364 247.895 416.35V455.355C247.895 469.686 236.278 481.303 221.947 481.303V481.303C207.617 481.303 196 469.686 196 455.355V378.35Z" fill="#E8A23B"/>
<path d="M330.759 378.35H316.864C295.877 378.35 278.864 395.364 278.864 416.35V455.355C278.864 469.686 290.481 481.303 304.811 481.303V481.303C319.142 481.303 330.759 469.686 330.759 455.355V378.35Z" fill="#E8A23B"/>
<path d="M195.108 368.598C193.414 329.659 224.525 297.165 263.5 297.165C302.475 297.165 333.586 329.659 331.892 368.598L331.752 371.819C330.162 408.359 300.075 437.165 263.5 437.165C226.925 437.165 196.838 408.359 195.248 371.819L195.108 368.598Z" fill="#E8A23B"/>
<path d="M304 367.665C304 379.148 300.926 391.577 293.875 399.225C286.512 407.211 274.926 410.165 263.5 410.165C252.074 410.165 243.019 407.211 235.656 399.225C228.605 391.577 223 379.148 223 367.665C223 344.193 241.132 325.165 263.5 325.165C285.868 325.165 304 344.193 304 367.665Z" fill="#C4822A"/>
<path d="M249 105C249 149.735 246.606 272.5 224.427 272.5C202.248 272.5 131 231.735 131 187C131 142.265 145 28.5 189.158 18C211.336 18 249 60.2649 249 105Z" fill="#E8A23B"/>
<path d="M277 105C277 149.735 279.394 272.5 301.573 272.5C323.752 272.5 395 231.735 395 187C395 142.265 381 28.5 336.842 18C314.664 18 277 60.2649 277 105Z" fill="#E8A23B"/>
<path d="M398 210.5C398 279.812 337.558 336 263 336C188.442 336 128 279.812 128 210.5C128 141.188 188.442 85 263 85C337.558 85 398 141.188 398 210.5Z" fill="#E8A23B"/>
<path d="M354.011 203.73C376.581 255.219 318.295 303.81 264.88 301.948C199.395 303.345 149.351 249.667 167.908 203.73C199.395 137.165 237.5 199.474 264.88 199.474C290 199.474 331.923 143.216 354.011 203.73Z" fill="white"/>
<ellipse opacity="0.46" cx="310.5" cy="251.5" rx="26.5" ry="25.5" fill="#F89FC2"/>
<ellipse opacity="0.46" cx="207.5" cy="251.5" rx="26.5" ry="25.5" fill="#F89FC2"/>
<path d="M259 239.5C259.667 247.333 259.9 265 255.5 273" stroke="#FC484A" stroke-width="3"/>
<path d="M252.979 239.117C256.166 242.76 261.834 242.76 265.021 239.117L269.045 234.517C273.57 229.344 269.896 221.25 263.023 221.25H254.977C248.104 221.25 244.43 229.344 248.955 234.517L252.979 239.117Z" fill="#FC484A"/>
<path d="M337.676 223.878C338.626 221.227 342.374 221.227 343.324 223.878L346.164 231.801C346.494 232.719 347.249 233.42 348.189 233.68L352.289 234.814C355.164 235.609 355.243 239.657 352.401 240.563L348.079 241.943C347.202 242.223 346.502 242.89 346.18 243.753L343.847 250.017C342.82 252.772 338.856 252.56 338.129 249.712L336.988 245.244C336.74 244.273 336.023 243.49 335.077 243.157L328.018 240.673C325.247 239.698 325.383 235.735 328.214 234.952L332.811 233.68C333.751 233.42 334.506 232.719 334.836 231.801L337.676 223.878Z" fill="#FDC900"/>
<ellipse cx="258.5" cy="266.5" rx="15" ry="14.5" fill="#A81C2F"/>
<mask id="mask0_40_553" style="mask-type:alpha" maskUnits="userSpaceOnUse" x="243" y="252" width="31" height="29">
<ellipse cx="258.5" cy="266.5" rx="15" ry="14.5" fill="#A81C2F"/>
</mask>
<g mask="url(#mask0_40_553)">
<circle cx="258" cy="280.5" r="15.5" fill="#E27257"/>
</g>
<path d="M241 221.5C241 230.613 233.613 238 224.5 238C215.387 238 208 230.613 208 221.5C208 212.387 215.387 213.5 224.5 213.5C233.613 213.5 241 212.387 241 221.5Z" fill="#1F1F23"/>
<path d="M218.5 223.294C217.976 226.845 217.721 229.767 215.535 229.445C213.35 229.122 212.003 225.982 212.527 222.43C213.05 218.879 215.247 216.261 217.432 216.584C219.618 216.906 219.024 219.743 218.5 223.294Z" fill="white"/>
<path d="M315 221.5C315 230.613 307.613 238 298.5 238C289.387 238 282 230.613 282 221.5C282 212.387 289.387 213 298.5 213C307.613 213 315 212.387 315 221.5Z" fill="#1F1F23"/>
<path d="M292.5 223.294C291.976 226.845 291.721 229.767 289.535 229.445C287.35 229.122 286.003 225.982 286.527 222.43C287.05 218.879 289.247 216.261 291.432 216.584C293.618 216.906 293.024 219.743 292.5 223.294Z" fill="white"/>
<path d="M113.439 207.297L114.014 199.82C114.315 195.908 116.666 192.47 120.295 190.98C136.366 184.378 184.94 166.908 254.471 164.255C326.159 161.519 387.764 179.139 406.306 185.087C409.892 186.238 412.544 189.224 413.025 192.96C413.951 200.15 413.853 207.369 413.457 213.175C413.008 219.762 406.479 223.758 400.158 221.852C376.753 214.798 322.533 199.214 272.905 190.515C228.191 182.677 166.807 202.872 129.166 218.488C121.405 221.708 112.794 215.674 113.439 207.297Z" fill="#E0602F"/>
<path d="M262 61C342.633 61 395 102.5 408 177.044C408.664 186.032 408.211 195.034 406.766 203.918C370.626 186.125 319.14 175 262 175C207.336 175 157.846 185.181 122.017 201.642C118.524 188.723 117.214 176.34 118.5 165.387C131.5 97.5003 181.366 61 262 61Z" fill="#F8A754"/>
<path d="M113.206 201.021L113.909 193.404C114.274 189.448 116.74 186.009 120.445 184.576C137.09 178.137 187.43 160.931 255.5 158.5C325.797 155.989 388.391 174.489 406.941 180.592C410.447 181.745 413.069 184.655 413.557 188.313C414.331 194.13 414.311 199.833 414.01 204.57C413.6 211.022 407.216 214.863 401.017 213.029C377.583 206.096 322.339 190.513 273.5 182.5C229.858 175.34 166.407 197.096 128.6 212.346C120.85 215.472 112.438 209.341 113.206 201.021Z" fill="#F59044"/>
<path d="M236 63.5001C210.001 67.9042 194.5 138.333 190 173H218C216.333 170.5 214 156.1 218 118.5C222 80.9001 234.667 66.1668 240.5 63.5001C240.5 63 236.5 63.4154 236 63.5001Z" fill="#F59044"/>
<path d="M298.5 63.0001C275.305 67.4038 260.015 138.312 256 173H301.053C299.566 170.499 282.931 154.124 286.5 116.5C290.069 78.8764 296.5 67 299.5 63C299.5 63 300.209 62.6758 298.5 63.0001Z" fill="#F59044"/>
<path d="M243 57C237 61.8 231.167 73 229 78L278 81.5L288 71.5C290.667 69.1667 306 64.5 296.5 59C283.591 51.5264 250.5 51 243 57Z" fill="#F8A754"/>
<path d="M91.7852 319.042L127.176 298.397C133.749 294.563 142.181 296.681 146.162 303.165L180.474 359.055C184.401 365.452 182.585 373.807 176.357 377.996L144.215 399.619C137.761 403.961 129.005 402.209 124.719 395.719L87.1575 338.851C82.7276 332.144 84.8422 323.092 91.7852 319.042Z" fill="#FADFCB"/>
<path d="M104.5 337.5L136.5 317" stroke="#C59D7F" stroke-width="7" stroke-linecap="round"/>
<path d="M115.5 353L131.5 343" stroke="#C59D7F" stroke-width="7" stroke-linecap="round"/>
<path d="M136.5 363L152.5 353" stroke="#C59D7F" stroke-width="7" stroke-linecap="round"/>
</svg>
