<svg width="500" height="500" viewBox="0 0 500 500" fill="none" xmlns="http://www.w3.org/2000/svg">
<path d="M102.618 300.724C107.343 287.621 121.795 280.831 134.898 285.556L216.921 315.137C229.834 319.795 236.527 334.038 231.87 346.952C226.732 361.198 210.156 367.578 196.793 360.452L172.931 347.729C169.228 345.754 165.283 344.271 161.197 343.317L120.607 333.838C105.91 330.406 97.4977 314.921 102.618 300.724Z" fill="#3B6FE8"/>
<path d="M386.992 375.882C394.921 364.431 392.067 348.721 380.616 340.791L308.932 291.151C297.646 283.336 282.161 286.149 274.346 297.435C265.724 309.886 270.146 327.087 283.703 333.837L307.911 345.889C311.668 347.759 315.165 350.111 318.313 352.886L349.584 380.445C360.907 390.424 378.4 388.29 386.992 375.882Z" fill="#3B6FE8"/>
<path d="M189 378.35H202.895C223.881 378.35 240.895 395.364 240.895 416.35V455.355C240.895 469.686 229.278 481.303 214.947 481.303V481.303C200.617 481.303 189 469.686 189 455.355V378.35Z" fill="#3B6FE8"/>
<path d="M323.759 378.35H309.864C288.877 378.35 271.864 395.364 271.864 416.35V455.355C271.864 469.686 283.481 481.303 297.811 481.303V481.303C312.142 481.303 323.759 469.686 323.759 455.355V378.35Z" fill="#3B6FE8"/>
<path d="M188.108 368.598C186.414 329.659 217.525 297.165 256.5 297.165C295.475 297.165 326.586 329.659 324.892 368.598L324.752 371.819C323.162 408.359 293.075 437.165 256.5 437.165C219.925 437.165 189.838 408.359 188.248 371.819L188.108 368.598Z" fill="#3B6FE8"/>
<path d="M297 367.665C297 379.148 293.926 391.577 286.875 399.225C279.512 407.211 267.926 410.165 256.5 410.165C245.074 410.165 236.019 407.211 228.656 399.225C221.605 391.577 216 379.148 216 367.665C216 344.193 234.132 325.165 256.5 325.165C278.868 325.165 297 344.193 297 367.665Z" fill="#2952C4"/>
<path d="M242 105C242 149.735 239.606 272.5 217.427 272.5C195.248 272.5 124 231.735 124 187C124 142.265 138 28.5 182.158 18C204.336 18 242 60.2649 242 105Z" fill="#3B6FE8"/>
<path d="M270 105C270 149.735 272.394 272.5 294.573 272.5C316.752 272.5 388 231.735 388 187C388 142.265 374 28.5 329.842 18C307.664 18 270 60.2649 270 105Z" fill="#3B6FE8"/>
<path d="M391 210.5C391 279.812 330.558 336 256 336C181.442 336 121 279.812 121 210.5C121 141.188 181.442 85 256 85C330.558 85 391 141.188 391 210.5Z" fill="#3B6FE8"/>
<path d="M347.011 203.73C369.581 255.219 311.295 303.81 257.88 301.948C192.395 303.345 142.351 249.667 160.908 203.73C192.395 137.165 230.5 199.474 257.88 199.474C283 199.474 324.923 143.216 347.011 203.73Z" fill="white"/>
<ellipse opacity="0.46" cx="303.5" cy="251.5" rx="26.5" ry="25.5" fill="#F89FC2"/>
<ellipse opacity="0.46" cx="200.5" cy="251.5" rx="26.5" ry="25.5" fill="#F89FC2"/>
<path d="M252 239.5C252.667 247.333 252.9 265 248.5 273" stroke="#FC484A" stroke-width="3"/>
<path d="M245.979 239.117C249.166 242.76 254.834 242.76 258.021 239.117L262.045 234.517C266.57 229.344 262.896 221.25 256.023 221.25H247.977C241.104 221.25 237.43 229.344 241.955 234.517L245.979 239.117Z" fill="#FC484A"/>
<path d="M330.676 223.878C331.626 221.227 335.374 221.227 336.324 223.878L339.164 231.801C339.494 232.719 340.249 233.42 341.189 233.68L345.289 234.814C348.164 235.609 348.243 239.657 345.401 240.563L341.079 241.943C340.202 242.223 339.502 242.89 339.18 243.753L336.847 250.017C335.82 252.772 331.856 252.56 331.129 249.712L329.988 245.244C329.74 244.273 329.023 243.49 328.077 243.157L321.018 240.673C318.247 239.698 318.383 235.735 321.214 234.952L325.811 233.68C326.751 233.42 327.506 232.719 327.836 231.801L330.676 223.878Z" fill="#FDC900"/>
<path d="M275 263.5C275 271.508 259.784 281 251.5 281C243.216 281 227 275 227 260C227 251.992 243.216 252 251.5 252C259.784 252 275 251.5 275 263.5Z" fill="#A81C2F"/>
<mask id="mask0_40_774" style="mask-type:alpha" maskUnits="userSpaceOnUse" x="229" y="252" width="46" height="30">
<path d="M275 262.5C275 273 258.165 280.764 252.5 281C240.5 281.5 229 273.008 229 265C229 256.992 244.395 252 254.75 252C265.105 252 275 254.492 275 262.5Z" fill="#A81C2F"/>
</mask>
<g mask="url(#mask0_40_774)">
<circle cx="251" cy="280.5" r="15.5" fill="#E27257"/>
</g>
<circle cx="218.5" cy="223.5" r="16.5" fill="#1F1F23"/>
<path d="M210.984 221.72C210.46 225.272 212.221 228.473 210.035 228.151C207.85 227.828 206.503 224.688 207.027 221.136C207.55 217.585 209.747 214.967 211.932 215.29C214.118 215.612 211.508 218.169 210.984 221.72Z" fill="white"/>
<circle cx="286.5" cy="223.5" r="16.5" fill="#1F1F23"/>
<path d="M278.984 221.72C278.46 225.272 280.221 228.473 278.035 228.151C275.85 227.828 274.503 224.688 275.027 221.136C275.55 217.585 277.747 214.967 279.932 215.29C282.118 215.612 279.508 218.169 278.984 221.72Z" fill="white"/>
<path d="M106.439 207.297L107.014 199.82C107.315 195.908 109.666 192.47 113.295 190.98C129.366 184.378 177.94 166.908 247.471 164.255C319.159 161.519 380.764 179.139 399.306 185.087C402.892 186.238 405.544 189.224 406.025 192.96C406.951 200.15 406.853 207.369 406.457 213.175C406.008 219.762 399.479 223.758 393.158 221.852C369.753 214.798 315.533 199.214 265.905 190.515C221.191 182.677 159.807 202.872 122.166 218.488C114.405 221.708 105.794 215.674 106.439 207.297Z" fill="#E0602F"/>
<path d="M255 61C335.633 61 388 102.5 401 177.044C401.664 186.032 401.211 195.034 399.766 203.918C363.626 186.125 312.14 175 255 175C200.336 175 150.846 185.181 115.017 201.642C111.524 188.723 110.214 176.34 111.5 165.387C124.5 97.5003 174.366 61 255 61Z" fill="#F8A754"/>
<path d="M106.206 201.021L106.909 193.404C107.274 189.448 109.74 186.009 113.445 184.576C130.09 178.137 180.43 160.931 248.5 158.5C318.797 155.989 381.391 174.489 399.941 180.592C403.447 181.745 406.069 184.655 406.557 188.313C407.331 194.13 407.311 199.833 407.01 204.57C406.6 211.022 400.216 214.863 394.017 213.029C370.583 206.096 315.339 190.513 266.5 182.5C222.858 175.34 159.407 197.096 121.6 212.346C113.85 215.472 105.438 209.341 106.206 201.021Z" fill="#F59044"/>
<path d="M229 63.5001C203.001 67.9042 187.5 138.333 183 173H211C209.333 170.5 207 156.1 211 118.5C215 80.9001 227.667 66.1668 233.5 63.5001C233.5 63 229.5 63.4154 229 63.5001Z" fill="#F59044"/>
<path d="M291.5 63.0001C268.305 67.4038 253.015 138.312 249 173H294.053C292.566 170.499 275.931 154.124 279.5 116.5C283.069 78.8764 289.5 67 292.5 63C292.5 63 293.209 62.6758 291.5 63.0001Z" fill="#F59044"/>
<path d="M236 57C230 61.8 224.167 73 222 78L271 81.5L281 71.5C283.667 69.1667 299 64.5 289.5 59C276.591 51.5264 243.5 51 236 57Z" fill="#F8A754"/>
<circle cx="205.5" cy="217.5" r="37.5" fill="#A4D3FE" fill-opacity="0.33" stroke="#3F3868" stroke-width="8"/>
<circle cx="299.5" cy="217.5" r="37.5" fill="#A4D3FE" fill-opacity="0.33" stroke="#3F3868" stroke-width="8"/>
<path d="M249 223H257.5" stroke="#3F3868" stroke-width="9" stroke-linecap="square"/>
</svg>
