<svg width="500" height="500" viewBox="0 0 500 500" fill="none" xmlns="http://www.w3.org/2000/svg">
<path d="M124.204 339.786C122.811 325.928 132.917 313.564 146.775 312.172L233.532 303.453C247.191 302.081 259.377 312.041 260.749 325.699C262.264 340.768 250.065 353.677 234.935 353.017L207.918 351.839C203.726 351.656 199.527 352.021 195.429 352.924L154.724 361.893C139.985 365.141 125.713 354.803 124.204 339.786Z" fill="#00C2A8"/>
<path d="M173 461L150 350" stroke="#C36358" stroke-width="13" stroke-linecap="round"/>
<path d="M148 334L108 124" stroke="#C36358" stroke-width="13" stroke-linecap="round"/>
<path d="M403.992 375.882C411.921 364.431 409.067 348.72 397.616 340.791L325.932 291.15C314.646 283.335 299.161 286.149 291.346 297.434C282.724 309.885 287.146 327.087 300.703 333.836L324.911 345.888C328.668 347.758 332.165 350.111 335.313 352.885L366.584 380.445C377.907 390.423 395.4 388.29 403.992 375.882Z" fill="#00C2A8"/>
<path d="M206 378.35H219.895C240.881 378.35 257.895 395.364 257.895 416.35V455.355C257.895 469.686 246.278 481.303 231.947 481.303V481.303C217.617 481.303 206 469.686 206 455.355V378.35Z" fill="#00C2A8"/>
<path d="M340.759 378.35H326.864C305.877 378.35 288.864 395.364 288.864 416.35V455.355C288.864 469.686 300.481 481.303 314.811 481.303V481.303C329.142 481.303 340.759 469.686 340.759 455.355V378.35Z" fill="#00C2A8"/>
<path d="M205.108 368.598C203.414 329.659 234.525 297.165 273.5 297.165C312.475 297.165 343.586 329.659 341.892 368.598L341.752 371.819C340.162 408.359 310.075 437.165 273.5 437.165C236.925 437.165 206.838 408.359 205.248 371.819L205.108 368.598Z" fill="#00C2A8"/>
<path d="M314 367.665C314 379.148 310.926 391.577 303.875 399.225C296.512 407.211 284.926 410.165 273.5 410.165C262.074 410.165 253.019 407.211 245.656 399.225C238.605 391.577 233 379.148 233 367.665C233 344.193 251.132 325.165 273.5 325.165C295.868 325.165 314 344.193 314 367.665Z" fill="#00967F"/>
<path d="M259 105C259 149.735 256.606 272.5 234.427 272.5C212.248 272.5 141 231.735 141 187C141 142.265 155 28.5 199.158 18C221.336 18 259 60.2649 259 105Z" fill="#00C2A8"/>
<path d="M287 105C287 149.735 289.394 272.5 311.573 272.5C333.752 272.5 405 231.735 405 187C405 142.265 391 28.5 346.842 18C324.664 18 287 60.2649 287 105Z" fill="#00C2A8"/>
<path d="M408 210.5C408 279.812 347.558 336 273 336C198.442 336 138 279.812 138 210.5C138 141.188 198.442 85 273 85C347.558 85 408 141.188 408 210.5Z" fill="#00C2A8"/>
<path d="M364.011 203.73C386.581 255.219 328.295 303.81 274.88 301.948C209.395 303.345 159.351 249.667 177.908 203.73C209.395 137.165 247.5 199.474 274.88 199.474C300 199.474 341.923 143.216 364.011 203.73Z" fill="white"/>
<ellipse opacity="0.46" cx="320.5" cy="251.5" rx="26.5" ry="25.5" fill="#F89FC2"/>
<ellipse opacity="0.46" cx="217.5" cy="251.5" rx="26.5" ry="25.5" fill="#F89FC2"/>
<path d="M269.357 240C269.986 245.595 271.149 254.286 267 260" stroke="#FC484A" stroke-width="3"/>
<path d="M262.979 239.117C266.166 242.76 271.834 242.76 275.021 239.117L279.045 234.517C283.57 229.344 279.896 221.25 273.023 221.25H264.977C258.104 221.25 254.43 229.344 258.955 234.517L262.979 239.117Z" fill="#FC484A"/>
<circle cx="303.5" cy="223.5" r="16.5" fill="#1F1F23"/>
<path d="M295.984 221.72C295.46 225.272 297.221 228.473 295.035 228.151C292.85 227.828 291.503 224.688 292.027 221.136C292.55 217.585 294.747 214.967 296.932 215.29C299.118 215.612 296.508 218.169 295.984 221.72Z" fill="white"/>
<circle cx="235.5" cy="223.5" r="16.5" fill="#1F1F23"/>
<path d="M227.984 221.72C227.46 225.272 229.221 228.473 227.035 228.151C224.85 227.828 223.503 224.688 224.027 221.136C224.55 217.585 226.747 214.967 228.932 215.29C231.118 215.612 228.508 218.169 227.984 221.72Z" fill="white"/>
<path d="M347.676 223.878C348.626 221.227 352.374 221.227 353.324 223.878L356.164 231.801C356.494 232.719 357.249 233.42 358.189 233.68L362.289 234.814C365.164 235.609 365.243 239.657 362.401 240.563L358.079 241.943C357.202 242.223 356.502 242.89 356.18 243.753L353.847 250.017C352.82 252.772 348.856 252.56 348.129 249.712L346.988 245.244C346.74 244.273 346.023 243.49 345.077 243.157L338.018 240.673C335.247 239.698 335.383 235.735 338.214 234.952L342.811 233.68C343.751 233.42 344.506 232.719 344.836 231.801L347.676 223.878Z" fill="#FDC900"/>
<path d="M251.154 253.991C252.212 257.175 256.302 259.604 258.55 260.31C262.692 261.61 268.254 259.611 268.254 259.611C268.254 259.611 272.345 262.752 275.637 262.768C281.243 263.031 284.167 260.834 285.898 258.771" stroke="#A81C2F" stroke-width="6" stroke-linecap="round"/>
<path d="M123.439 207.297L124.014 199.82C124.315 195.908 126.666 192.47 130.295 190.98C146.366 184.378 194.94 166.908 264.471 164.255C336.159 161.519 397.764 179.139 416.306 185.087C419.892 186.238 422.544 189.224 423.025 192.96C423.951 200.15 423.853 207.369 423.457 213.175C423.008 219.762 416.479 223.758 410.158 221.852C386.753 214.798 332.533 199.214 282.905 190.515C238.191 182.677 176.807 202.872 139.166 218.488C131.405 221.708 122.794 215.674 123.439 207.297Z" fill="#E0602F"/>
<path d="M272 61C352.633 61 405 102.5 418 177.044C418.664 186.032 418.211 195.034 416.766 203.918C380.626 186.125 329.14 175 272 175C217.336 175 167.846 185.181 132.017 201.642C128.524 188.723 127.214 176.34 128.5 165.387C141.5 97.5003 191.366 61 272 61Z" fill="#F8A754"/>
<path d="M123.206 201.021L123.909 193.404C124.274 189.448 126.74 186.009 130.445 184.576C147.09 178.137 197.43 160.931 265.5 158.5C335.797 155.989 398.391 174.489 416.941 180.592C420.447 181.745 423.069 184.655 423.557 188.313C424.331 194.13 424.311 199.833 424.01 204.57C423.6 211.022 417.216 214.863 411.017 213.029C387.583 206.096 332.339 190.513 283.5 182.5C239.858 175.34 176.407 197.096 138.6 212.346C130.85 215.472 122.438 209.341 123.206 201.021Z" fill="#F59044"/>
<path d="M246 63.5001C220.001 67.9042 204.5 138.333 200 173H228C226.333 170.5 224 156.1 228 118.5C232 80.9001 244.667 66.1668 250.5 63.5001C250.5 63 246.5 63.4154 246 63.5001Z" fill="#F59044"/>
<path d="M308.5 63.0001C285.305 67.4038 270.015 138.312 266 173H311.053C309.566 170.499 292.931 154.124 296.5 116.5C300.069 78.8764 306.5 67 309.5 63C309.5 63 310.209 62.6758 308.5 63.0001Z" fill="#F59044"/>
<path d="M253 57C247 61.8 241.167 73 239 78L288 81.5L298 71.5C300.667 69.1667 316 64.5 306.5 59C293.591 51.5264 260.5 51 253 57Z" fill="#F8A754"/>
<ellipse cx="141" cy="336.5" rx="20" ry="18.5" fill="#00967F"/>
<circle cx="136.5" cy="338.5" r="21.5" fill="#00C2A8"/>
<path d="M17.6051 146.373L28.8233 198.833C29.8967 203.853 32.9203 208.24 37.2292 211.031L85.8037 242.491C90.1125 245.282 95.3532 246.246 100.373 245.173L152.833 233.954C157.853 232.881 162.24 229.857 165.031 225.548L196.491 176.974C199.281 172.665 200.246 167.424 199.173 162.405L187.954 109.945C186.881 104.925 183.857 100.537 179.548 97.7466L130.974 66.2868C126.665 63.4963 121.424 62.5316 116.405 63.6051L63.9449 74.8233C58.9249 75.8968 54.5371 78.9204 51.7465 83.2292L20.2868 131.804C17.4962 136.113 16.5316 141.353 17.6051 146.373Z" fill="#ABDED6"/>
<path d="M100 116L110.119 163.319Z" fill="#D9D9D9"/>
<path d="M100 116L110.119 163.319" stroke="#3B9387" stroke-width="20" stroke-linecap="round"/>
<path d="M116.191 191.711L116.168 191.605Z" fill="#D9D9D9"/>
<path d="M116.191 191.711L116.168 191.605" stroke="#3B9387" stroke-width="20" stroke-linecap="round"/>
</svg>
