<svg width="500" height="500" viewBox="0 0 500 500" fill="none" xmlns="http://www.w3.org/2000/svg">
<path d="M115.326 303.692C121.628 291.271 136.805 286.31 149.227 292.612L226.987 332.061C239.229 338.272 244.118 353.231 237.908 365.473C231.056 378.979 213.821 383.271 201.436 374.555L179.321 358.992C175.889 356.577 172.157 354.619 168.219 353.17L129.104 338.769C114.941 333.554 108.498 317.151 115.326 303.692Z" fill="#E8503B"/>
<path d="M382.67 303.443C376.317 291.048 361.119 286.15 348.724 292.503L271.127 332.272C258.91 338.533 254.083 353.512 260.344 365.729C267.251 379.207 284.503 383.427 296.852 374.66L318.903 359.006C322.325 356.577 326.049 354.604 329.981 353.138L369.037 338.576C383.178 333.304 389.553 316.874 382.67 303.443Z" fill="#E8503B"/>
<path d="M183.5 378.35H197.395C218.381 378.35 235.395 395.364 235.395 416.35V455.355C235.395 469.686 223.778 481.303 209.447 481.303C195.117 481.303 183.5 469.686 183.5 455.355V378.35Z" fill="#E8503B"/>
<path d="M318.259 378.35H304.364C283.377 378.35 266.364 395.364 266.364 416.35V455.355C266.364 469.686 277.981 481.303 292.311 481.303C306.642 481.303 318.259 469.686 318.259 455.355V378.35Z" fill="#E8503B"/>
<path d="M182.608 368.598C180.914 329.659 212.025 297.165 251 297.165C289.975 297.165 321.086 329.659 319.392 368.598L319.252 371.819C317.662 408.359 287.575 437.165 251 437.165C214.425 437.165 184.338 408.359 182.748 371.819L182.608 368.598Z" fill="#E8503B"/>
<path d="M291.5 367.665C291.5 379.148 288.426 391.577 281.375 399.225C274.012 407.211 262.426 410.165 251 410.165C239.574 410.165 230.519 407.211 223.156 399.225C216.105 391.577 210.5 379.148 210.5 367.665C210.5 344.193 228.632 325.165 251 325.165C273.368 325.165 291.5 344.193 291.5 367.665Z" fill="#C43828"/>
<path d="M236.5 105C236.5 149.735 234.106 272.5 211.927 272.5C189.748 272.5 118.5 231.735 118.5 187C118.5 142.265 132.5 28.5 176.658 18C198.836 18 236.5 60.2649 236.5 105Z" fill="#E8503B"/>
<path d="M264.5 105C264.5 149.735 266.894 272.5 289.073 272.5C311.252 272.5 382.5 231.735 382.5 187C382.5 142.265 368.5 28.5 324.342 18C302.164 18 264.5 60.2649 264.5 105Z" fill="#E8503B"/>
<path d="M385.5 210.5C385.5 279.812 325.058 336 250.5 336C175.942 336 115.5 279.812 115.5 210.5C115.5 141.188 175.942 85 250.5 85C325.058 85 385.5 141.188 385.5 210.5Z" fill="#E8503B"/>
<path d="M341.511 203.73C364.081 255.219 305.795 303.81 252.38 301.948C186.895 303.345 136.851 249.667 155.408 203.73C186.895 137.165 225 199.474 252.38 199.474C277.5 199.474 319.423 143.216 341.511 203.73Z" fill="white"/>
<path d="M257 231.5C257 237.299 252.299 242 246.5 242C240.701 242 236 237.299 236 231.5C236 225.701 240.701 221 246.5 221C252.299 221 257 225.701 257 231.5Z" fill="#FC484A"/>
<ellipse opacity="0.46" cx="298" cy="251.5" rx="26.5" ry="25.5" fill="#F89FC2"/>
<ellipse opacity="0.46" cx="195" cy="251.5" rx="26.5" ry="25.5" fill="#F89FC2"/>
<path d="M246.5 239.5C247.167 247.333 247.4 265 243 273" stroke="#FC484A" stroke-width="3"/>
<path d="M325.176 223.878C326.126 221.227 329.874 221.227 330.824 223.878L333.664 231.801C333.994 232.719 334.749 233.42 335.689 233.68L339.789 234.814C342.664 235.609 342.743 239.657 339.901 240.563L335.579 241.943C334.702 242.223 334.002 242.89 333.68 243.753L331.347 250.017C330.32 252.772 326.356 252.56 325.629 249.712L324.488 245.244C324.24 244.273 323.523 243.49 322.577 243.157L315.518 240.673C312.747 239.698 312.883 235.735 315.714 234.952L320.311 233.68C321.251 233.42 322.006 232.719 322.336 231.801L325.176 223.878Z" fill="#FDC900"/>
<circle cx="212" cy="221.5" r="16.5" fill="#1F1F23"/>
<circle cx="212.5" cy="225" r="6" fill="white"/>
<circle cx="286" cy="221.5" r="16.5" fill="#1F1F23"/>
<circle cx="286.5" cy="225" r="6" fill="white"/>
<path d="M246 252C256.77 252 265.5 260.731 265.5 271.5V280.06C265.5 280.375 265.492 280.688 265.477 281H226.523C226.508 280.688 226.5 280.375 226.5 280.06V271.5C226.5 260.73 235.231 252 246 252Z" fill="#A81C2F"/>
<path fill-rule="evenodd" clip-rule="evenodd" d="M226.5 278.629C233.019 271.25 243.526 268.018 253.489 271.249C258.399 272.842 262.495 275.783 265.5 279.529V280.443C265.5 280.758 265.491 281.071 265.477 281.383H226.522C226.508 281.071 226.5 280.758 226.5 280.443V278.629Z" fill="#E27257"/>
<path d="M100.939 207.297L101.514 199.82C101.815 195.908 104.166 192.47 107.795 190.98C123.866 184.378 172.44 166.908 241.971 164.255C313.659 161.519 375.264 179.139 393.806 185.087C397.392 186.238 400.044 189.224 400.525 192.96C401.451 200.15 401.353 207.369 400.957 213.175C400.508 219.762 393.979 223.758 387.658 221.852C364.253 214.798 310.033 199.214 260.405 190.515C215.691 182.677 154.307 202.872 116.666 218.488C108.905 221.708 100.294 215.674 100.939 207.297Z" fill="#E0602F"/>
<path fill-rule="evenodd" clip-rule="evenodd" d="M249.5 61C330.133 61 382.5 102.5 395.5 177.044C396.164 186.032 395.711 195.034 394.266 203.918C358.126 186.125 306.64 175 249.5 175C194.836 175 145.346 185.181 109.517 201.642C106.024 188.723 104.714 176.34 106 165.387C119 97.5003 168.866 61 249.5 61Z" fill="#F8A754"/>
<path d="M100.706 201.021L101.409 193.404C101.774 189.448 104.24 186.009 107.945 184.576C124.59 178.137 174.93 160.931 243 158.5C313.297 155.989 375.891 174.489 394.441 180.592C397.947 181.745 400.569 184.655 401.057 188.313C401.831 194.13 401.811 199.833 401.51 204.57C401.1 211.022 394.716 214.863 388.517 213.029C365.083 206.096 309.839 190.513 261 182.5C217.358 175.34 153.907 197.096 116.1 212.346C108.35 215.472 99.9377 209.341 100.706 201.021Z" fill="#F59044"/>
<path d="M223.5 63.5001C197.501 67.9042 182 138.333 177.5 173H205.5C203.833 170.5 201.5 156.1 205.5 118.5C209.5 80.9001 222.167 66.1668 228 63.5001C228 63 224 63.4154 223.5 63.5001Z" fill="#F59044"/>
<path d="M286 63.0001C262.805 67.4038 247.515 138.312 243.5 173H288.553C287.066 170.499 270.431 154.124 274 116.5C277.569 78.8764 284 67 287 63C287 63 287.709 62.6758 286 63.0001Z" fill="#F59044"/>
<path d="M230.5 57C224.5 61.8 218.667 73 216.5 78L265.5 81.5L275.5 71.5C278.167 69.1667 293.5 64.5 284 59C271.091 51.5264 238 51 230.5 57Z" fill="#F8A754"/>
<path d="M364 203.46C364 211.49 355.717 218 345.5 218C335.283 218 327 211.49 327 203.46C327 195.43 335.283 171 345.5 171C355.717 171 364 195.43 364 203.46Z" fill="#1260F2"/>
</svg>
