<svg width="500" height="500" viewBox="0 0 500 500" fill="none" xmlns="http://www.w3.org/2000/svg">
<path d="M115.605 377.557C109.196 365.191 114.025 349.97 126.391 343.561L203.805 303.438C215.993 297.121 230.994 301.88 237.311 314.068C244.28 327.514 237.707 344.014 223.401 348.985L197.857 357.861C193.893 359.239 190.126 361.127 186.651 363.479L152.129 386.839C139.63 395.297 122.55 390.956 115.605 377.557Z" fill="#3B6FE8"/>
<path d="M385.395 377.557C391.804 365.191 386.975 349.97 374.609 343.561L297.195 303.438C285.007 297.121 270.006 301.88 263.689 314.068C256.72 327.514 263.293 344.014 277.599 348.985L303.143 357.861C307.107 359.239 310.874 361.127 314.349 363.479L348.871 386.839C361.37 395.297 378.45 390.956 385.395 377.557Z" fill="#3B6FE8"/>
<path d="M183 378.35H196.895C217.881 378.35 234.895 395.364 234.895 416.35V455.355C234.895 469.686 223.278 481.303 208.947 481.303V481.303C194.617 481.303 183 469.686 183 455.355V378.35Z" fill="#3B6FE8"/>
<path d="M317.759 378.35H303.864C282.877 378.35 265.864 395.364 265.864 416.35V455.355C265.864 469.686 277.481 481.303 291.811 481.303V481.303C306.142 481.303 317.759 469.686 317.759 455.355V378.35Z" fill="#3B6FE8"/>
<path d="M182.108 368.598C180.414 329.659 211.525 297.165 250.5 297.165C289.475 297.165 320.586 329.659 318.892 368.598L318.752 371.819C317.162 408.359 287.075 437.165 250.5 437.165C213.925 437.165 183.838 408.359 182.248 371.819L182.108 368.598Z" fill="#3B6FE8"/>
<path d="M291 367.665C291 379.148 287.926 391.577 280.875 399.225C273.512 407.211 261.926 410.165 250.5 410.165C239.074 410.165 230.019 407.211 222.656 399.225C215.605 391.577 210 379.148 210 367.665C210 344.193 228.132 325.165 250.5 325.165C272.868 325.165 291 344.193 291 367.665Z" fill="#2952C4"/>
<path d="M236 105C236 149.735 233.606 272.5 211.427 272.5C189.248 272.5 118 231.735 118 187C118 142.265 132 28.5 176.158 18C198.336 18 236 60.2649 236 105Z" fill="#3B6FE8"/>
<path d="M264 105C264 149.735 266.394 272.5 288.573 272.5C310.752 272.5 382 231.735 382 187C382 142.265 368 28.5 323.842 18C301.664 18 264 60.2649 264 105Z" fill="#3B6FE8"/>
<path d="M385 210.5C385 279.812 324.558 336 250 336C175.442 336 115 279.812 115 210.5C115 141.188 175.442 85 250 85C324.558 85 385 141.188 385 210.5Z" fill="#3B6FE8"/>
<path d="M341.011 203.73C363.581 255.219 305.295 303.81 251.88 301.948C186.395 303.345 136.351 249.667 154.908 203.73C186.395 137.165 224.5 199.474 251.88 199.474C277 199.474 318.923 143.216 341.011 203.73Z" fill="white"/>
<ellipse opacity="0.46" cx="297.5" cy="251.5" rx="26.5" ry="25.5" fill="#F89FC2"/>
<ellipse opacity="0.46" cx="194.5" cy="251.5" rx="26.5" ry="25.5" fill="#F89FC2"/>
<path d="M246 239.5C246.667 247.333 246.9 265 242.5 273" stroke="#FC484A" stroke-width="3"/>
<path d="M239.979 239.117C243.166 242.76 248.834 242.76 252.021 239.117L256.045 234.517C260.57 229.344 256.896 221.25 250.023 221.25H241.977C235.104 221.25 231.43 229.344 235.955 234.517L239.979 239.117Z" fill="#FC484A"/>
<path d="M274.347 259.736C271.483 275.243 250 275.639 241.955 275.243C227 274.508 217 264.086 217 249.84C217 235.594 235.792 247.679 247.509 249.84C258.494 251.866 274.983 249.84 274.347 259.736Z" fill="#A81C2F"/>
<mask id="mask0_40_285" style="mask-type:alpha" maskUnits="userSpaceOnUse" x="217" y="243" width="58" height="33">
<path d="M274.347 260.244C271.483 275.751 250 276.147 241.955 275.751C227 275.016 217 264.594 217 250.348C217 236.102 235.792 248.187 247.509 250.348C258.494 252.374 274.983 250.348 274.347 260.244Z" fill="#A81C2F"/>
</mask>
<g mask="url(#mask0_40_285)">
<circle cx="240.5" cy="283.516" r="25.5" fill="#E27257"/>
</g>
<path d="M324.676 223.878C325.626 221.227 329.374 221.227 330.324 223.878L333.164 231.801C333.494 232.719 334.249 233.42 335.189 233.68L339.289 234.814C342.164 235.609 342.243 239.657 339.401 240.563L335.079 241.943C334.202 242.223 333.502 242.89 333.18 243.753L330.847 250.017C329.82 252.772 325.856 252.56 325.129 249.712L323.988 245.244C323.74 244.273 323.023 243.49 322.077 243.157L315.018 240.673C312.247 239.698 312.383 235.735 315.214 234.952L319.811 233.68C320.751 233.42 321.506 232.719 321.836 231.801L324.676 223.878Z" fill="#FDC900"/>
<path d="M300.706 223.683C289.198 225.096 279.56 226.279 270.929 227.339M270.929 227.339L289.257 212.495M270.929 227.339L288.354 240.816" stroke="black" stroke-width="9" stroke-linecap="round" stroke-linejoin="round"/>
<circle cx="211.5" cy="221.5" r="16.5" fill="#1F1F23"/>
<path d="M203.984 219.72C203.46 223.272 205.221 226.473 203.035 226.151C200.85 225.828 199.503 222.688 200.027 219.136C200.55 215.585 202.747 212.967 204.932 213.29C207.118 213.612 204.508 216.169 203.984 219.72Z" fill="white"/>
</svg>
